<svg width="452" height="286" viewBox="0 0 452 286" fill="none" xmlns="http://www.w3.org/2000/svg">
<g clip-path="url(#clip0_4_276)">
<path d="M171.301 45.0306C170.99 45.4324 170.559 45.7254 170.071 45.8676C169.583 46.0099 169.063 45.9942 168.584 45.8228C168.439 45.7797 168.296 45.7276 168.157 45.6668C168.314 43.9864 168.236 42.2923 167.926 40.6335C167.804 42.0594 167.455 43.4567 166.893 44.7727C166.435 44.3131 166.06 43.7775 165.784 43.1897C165.272 41.9734 164.932 40.6912 164.775 39.3805C164.016 34.9149 163.268 30.2693 164.506 25.9053C166.319 19.5303 172.036 14.9473 174.425 8.76209L175.601 7.70557C177.615 11.1362 177.704 15.3992 176.883 19.2893C176.067 23.1872 174.421 26.8454 173.12 30.6044C171.819 34.3633 170.844 38.3617 171.448 42.295C171.587 43.2211 171.798 44.239 171.301 45.0306Z" fill="#363636"/>
<path d="M145.153 98.9727L137.486 134.052L170.975 144.963L166.051 98.9727H145.153Z" fill="#FFB6B6"/>
<path d="M381.479 285.139H396.655V215.543C396.634 197.582 389.493 180.363 376.796 167.662C364.1 154.962 346.886 147.818 328.93 147.798H187.89C169.935 147.818 152.72 154.962 140.024 167.662C127.328 180.363 120.186 197.582 120.166 215.543V285.139H135.341V237.593C135.362 219.465 142.57 202.086 155.384 189.267C168.199 176.449 185.573 169.239 203.696 169.218H313.124C331.247 169.239 348.621 176.449 361.436 189.267C374.25 202.086 381.458 219.465 381.479 237.593V285.139Z" fill="#E6E6E6"/>
<path d="M197.066 248.73L180.892 243.832C179.84 239.508 179.31 235.074 179.312 230.625C179.319 229.62 179.613 228.638 180.158 227.794C180.704 226.95 181.478 226.278 182.391 225.858C183.304 225.438 184.317 225.287 185.313 225.422C186.308 225.557 187.245 225.973 188.013 226.621C196.687 234.064 209.394 238.035 217.594 246.517C220.988 250.081 223.536 254.364 225.05 259.048C226.564 263.731 227.005 268.696 226.341 273.573L229.881 285.027C221.958 284.455 214.252 282.172 207.296 278.334C200.34 274.496 194.298 269.196 189.587 262.798C186.98 259.182 184.838 255.253 183.213 251.102C190.072 250.323 197.066 248.73 197.066 248.73Z" fill="#F2F2F2"/>
<path d="M239.219 267.487L247.468 264.989C247.479 264.945 247.489 264.901 247.5 264.857C247.728 263.848 247.656 262.794 247.292 261.825C246.928 260.857 246.289 260.016 245.453 259.406C244.616 258.797 243.62 258.446 242.587 258.397C241.553 258.347 240.528 258.602 239.638 259.128C235.893 261.354 231.735 263.27 228.749 266.358C227.018 268.176 225.718 270.361 224.946 272.75C224.174 275.138 223.949 277.67 224.288 280.158L222.482 286C226.523 285.708 230.453 284.544 234.001 282.586C237.549 280.629 240.63 277.926 243.033 274.662C244.363 272.818 245.455 270.814 246.284 268.697C242.786 268.3 239.219 267.487 239.219 267.487Z" fill="#F2F2F2"/>
<path d="M305.995 96.4727H273.871C273.417 96.4733 272.981 96.6545 272.66 96.9764C272.339 97.2982 272.159 97.7344 272.16 98.189V148.951H307.711V98.189C307.711 97.9636 307.667 97.7403 307.581 97.532C307.494 97.3238 307.368 97.1345 307.209 96.9751C307.049 96.8157 306.86 96.6893 306.652 96.6031C306.444 96.5169 306.221 96.4725 305.995 96.4727ZM290.041 125.315C289.037 125.31 288.074 124.909 287.364 124.198C286.654 123.488 286.253 122.525 286.248 121.521V115.666C286.249 114.66 286.649 113.696 287.361 112.986C288.072 112.275 289.036 111.876 290.041 111.876C291.046 111.876 292.01 112.275 292.722 112.986C293.433 113.696 293.833 114.66 293.835 115.666V121.521C293.83 122.525 293.429 123.488 292.718 124.198C292.008 124.909 291.046 125.31 290.041 125.315Z" fill="#3F3D56"/>
<path d="M359.19 17.2529H221.872C220.692 17.2548 219.561 17.7245 218.727 18.5589C217.893 19.3934 217.423 20.5247 217.421 21.7048V114.396C217.422 115.576 217.892 116.708 218.726 117.542C219.56 118.377 220.692 118.846 221.872 118.847H359.19C360.37 118.846 361.501 118.377 362.336 117.542C363.17 116.708 363.639 115.576 363.64 114.396V21.7048C363.638 20.5247 363.169 19.3934 362.335 18.5589C361.501 17.7245 360.37 17.2548 359.19 17.2529Z" fill="#3F3D56"/>
<path d="M358.044 20.4684H223.019C222.387 20.4698 221.782 20.7217 221.336 21.169C220.89 21.6163 220.639 22.2223 220.639 22.8542V113.248C220.64 113.879 220.891 114.484 221.337 114.93C221.783 115.376 222.388 115.627 223.019 115.628H358.044C358.675 115.627 359.279 115.376 359.725 114.93C360.172 114.484 360.423 113.879 360.424 113.248V22.8542C360.424 22.2223 360.173 21.6163 359.727 21.169C359.281 20.7217 358.675 20.4698 358.044 20.4684Z" fill="white"/>
<path d="M272.049 147.327V152.225C272.05 152.479 272.151 152.722 272.33 152.901C272.51 153.081 272.753 153.182 273.006 153.182H306.864C307.118 153.181 307.36 153.08 307.539 152.9C307.719 152.721 307.82 152.478 307.821 152.225V147.327H272.049Z" fill="#3F3D56"/>
<path d="M331.743 154.886H251.411C251.191 154.886 250.974 154.837 250.775 154.743C250.577 154.648 250.402 154.51 250.263 154.34C250.125 154.169 250.026 153.969 249.974 153.755C249.923 153.542 249.92 153.319 249.965 153.104L251.211 147.182C251.282 146.851 251.464 146.553 251.727 146.34C251.99 146.126 252.318 146.009 252.657 146.008H330.497C330.836 146.009 331.164 146.126 331.427 146.34C331.69 146.553 331.872 146.851 331.943 147.182L333.189 153.104C333.235 153.319 333.231 153.542 333.18 153.755C333.128 153.969 333.029 154.169 332.891 154.34C332.752 154.51 332.577 154.648 332.379 154.743C332.18 154.837 331.963 154.886 331.743 154.886Z" fill="#3F3D56"/>
<path d="M255.394 147.075H253.535C253.365 147.075 253.228 147.212 253.228 147.382V148.252C253.228 148.422 253.365 148.56 253.535 148.56H255.394C255.564 148.56 255.702 148.422 255.702 148.252V147.382C255.702 147.212 255.564 147.075 255.394 147.075Z" fill="#E6E6E6"/>
<path d="M260.342 147.075H258.483C258.313 147.075 258.176 147.212 258.176 147.382V148.252C258.176 148.422 258.313 148.56 258.483 148.56H260.342C260.512 148.56 260.65 148.422 260.65 148.252V147.382C260.65 147.212 260.512 147.075 260.342 147.075Z" fill="#E6E6E6"/>
<path d="M265.291 147.075H263.431C263.262 147.075 263.124 147.212 263.124 147.382V148.252C263.124 148.422 263.262 148.56 263.431 148.56H265.291C265.461 148.56 265.598 148.422 265.598 148.252V147.382C265.598 147.212 265.461 147.075 265.291 147.075Z" fill="#E6E6E6"/>
<path d="M270.239 147.075H268.38C268.21 147.075 268.073 147.212 268.073 147.382V148.252C268.073 148.422 268.21 148.56 268.38 148.56H270.239C270.409 148.56 270.547 148.422 270.547 148.252V147.382C270.547 147.212 270.409 147.075 270.239 147.075Z" fill="#E6E6E6"/>
<path d="M275.187 147.075H273.328C273.158 147.075 273.021 147.212 273.021 147.382V148.252C273.021 148.422 273.158 148.56 273.328 148.56H275.187C275.357 148.56 275.495 148.422 275.495 148.252V147.382C275.495 147.212 275.357 147.075 275.187 147.075Z" fill="#E6E6E6"/>
<path d="M280.136 147.075H278.276C278.107 147.075 277.969 147.212 277.969 147.382V148.252C277.969 148.422 278.107 148.56 278.276 148.56H280.136C280.305 148.56 280.443 148.422 280.443 148.252V147.382C280.443 147.212 280.305 147.075 280.136 147.075Z" fill="#E6E6E6"/>
<path d="M285.084 147.075H283.225C283.055 147.075 282.917 147.212 282.917 147.382V148.252C282.917 148.422 283.055 148.56 283.225 148.56H285.084C285.254 148.56 285.392 148.422 285.392 148.252V147.382C285.392 147.212 285.254 147.075 285.084 147.075Z" fill="#E6E6E6"/>
<path d="M290.032 147.075H288.173C288.003 147.075 287.866 147.212 287.866 147.382V148.252C287.866 148.422 288.003 148.56 288.173 148.56H290.032C290.202 148.56 290.34 148.422 290.34 148.252V147.382C290.34 147.212 290.202 147.075 290.032 147.075Z" fill="#E6E6E6"/>
<path d="M294.981 147.075H293.121C292.952 147.075 292.814 147.212 292.814 147.382V148.252C292.814 148.422 292.952 148.56 293.121 148.56H294.981C295.15 148.56 295.288 148.422 295.288 148.252V147.382C295.288 147.212 295.15 147.075 294.981 147.075Z" fill="#E6E6E6"/>
<path d="M299.929 147.075H298.07C297.9 147.075 297.762 147.212 297.762 147.382V148.252C297.762 148.422 297.9 148.56 298.07 148.56H299.929C300.099 148.56 300.237 148.422 300.237 148.252V147.382C300.237 147.212 300.099 147.075 299.929 147.075Z" fill="#E6E6E6"/>
<path d="M304.877 147.075H303.018C302.848 147.075 302.711 147.212 302.711 147.382V148.252C302.711 148.422 302.848 148.56 303.018 148.56H304.877C305.047 148.56 305.185 148.422 305.185 148.252V147.382C305.185 147.212 305.047 147.075 304.877 147.075Z" fill="#E6E6E6"/>
<path d="M309.826 147.075H307.966C307.797 147.075 307.659 147.212 307.659 147.382V148.252C307.659 148.422 307.797 148.56 307.966 148.56H309.826C309.995 148.56 310.133 148.422 310.133 148.252V147.382C310.133 147.212 309.995 147.075 309.826 147.075Z" fill="#E6E6E6"/>
<path d="M314.774 147.075H312.915C312.745 147.075 312.607 147.212 312.607 147.382V148.252C312.607 148.422 312.745 148.56 312.915 148.56H314.774C314.944 148.56 315.082 148.422 315.082 148.252V147.382C315.082 147.212 314.944 147.075 314.774 147.075Z" fill="#E6E6E6"/>
<path d="M319.722 147.075H317.863C317.693 147.075 317.556 147.212 317.556 147.382V148.252C317.556 148.422 317.693 148.56 317.863 148.56H319.722C319.892 148.56 320.03 148.422 320.03 148.252V147.382C320.03 147.212 319.892 147.075 319.722 147.075Z" fill="#E6E6E6"/>
<path d="M324.671 147.075H322.811C322.642 147.075 322.504 147.212 322.504 147.382V148.252C322.504 148.422 322.642 148.56 322.811 148.56H324.671C324.84 148.56 324.978 148.422 324.978 148.252V147.382C324.978 147.212 324.84 147.075 324.671 147.075Z" fill="#E6E6E6"/>
<path d="M329.619 147.075H327.76C327.59 147.075 327.452 147.212 327.452 147.382V148.252C327.452 148.422 327.59 148.56 327.76 148.56H329.619C329.789 148.56 329.926 148.422 329.926 148.252V147.382C329.926 147.212 329.789 147.075 329.619 147.075Z" fill="#E6E6E6"/>
<path d="M255.336 149.549H253.476C253.307 149.549 253.169 149.687 253.169 149.857V150.727C253.169 150.897 253.307 151.034 253.476 151.034H255.336C255.505 151.034 255.643 150.897 255.643 150.727V149.857C255.643 149.687 255.505 149.549 255.336 149.549Z" fill="#E6E6E6"/>
<path d="M260.284 149.549H258.425C258.255 149.549 258.117 149.687 258.117 149.857V150.727C258.117 150.897 258.255 151.034 258.425 151.034H260.284C260.454 151.034 260.592 150.897 260.592 150.727V149.857C260.592 149.687 260.454 149.549 260.284 149.549Z" fill="#E6E6E6"/>
<path d="M265.232 149.549H263.373C263.203 149.549 263.066 149.687 263.066 149.857V150.727C263.066 150.897 263.203 151.034 263.373 151.034H265.232C265.402 151.034 265.54 150.897 265.54 150.727V149.857C265.54 149.687 265.402 149.549 265.232 149.549Z" fill="#E6E6E6"/>
<path d="M270.181 149.549H268.321C268.152 149.549 268.014 149.687 268.014 149.857V150.727C268.014 150.897 268.152 151.034 268.321 151.034H270.181C270.35 151.034 270.488 150.897 270.488 150.727V149.857C270.488 149.687 270.35 149.549 270.181 149.549Z" fill="#E6E6E6"/>
<path d="M275.129 149.549H273.27C273.1 149.549 272.962 149.687 272.962 149.857V150.727C272.962 150.897 273.1 151.034 273.27 151.034H275.129C275.299 151.034 275.437 150.897 275.437 150.727V149.857C275.437 149.687 275.299 149.549 275.129 149.549Z" fill="#E6E6E6"/>
<path d="M280.077 149.549H278.218C278.048 149.549 277.911 149.687 277.911 149.857V150.727C277.911 150.897 278.048 151.034 278.218 151.034H280.077C280.247 151.034 280.385 150.897 280.385 150.727V149.857C280.385 149.687 280.247 149.549 280.077 149.549Z" fill="#E6E6E6"/>
<path d="M285.026 149.549H283.166C282.997 149.549 282.859 149.687 282.859 149.857V150.727C282.859 150.897 282.997 151.034 283.166 151.034H285.026C285.195 151.034 285.333 150.897 285.333 150.727V149.857C285.333 149.687 285.195 149.549 285.026 149.549Z" fill="#E6E6E6"/>
<path d="M289.974 149.549H288.115C287.945 149.549 287.807 149.687 287.807 149.857V150.727C287.807 150.897 287.945 151.034 288.115 151.034H289.974C290.144 151.034 290.281 150.897 290.281 150.727V149.857C290.281 149.687 290.144 149.549 289.974 149.549Z" fill="#E6E6E6"/>
<path d="M294.922 149.549H293.063C292.893 149.549 292.756 149.687 292.756 149.857V150.727C292.756 150.897 292.893 151.034 293.063 151.034H294.922C295.092 151.034 295.23 150.897 295.23 150.727V149.857C295.23 149.687 295.092 149.549 294.922 149.549Z" fill="#E6E6E6"/>
<path d="M299.871 149.549H298.011C297.842 149.549 297.704 149.687 297.704 149.857V150.727C297.704 150.897 297.842 151.034 298.011 151.034H299.871C300.04 151.034 300.178 150.897 300.178 150.727V149.857C300.178 149.687 300.04 149.549 299.871 149.549Z" fill="#E6E6E6"/>
<path d="M304.819 149.549H302.96C302.79 149.549 302.652 149.687 302.652 149.857V150.727C302.652 150.897 302.79 151.034 302.96 151.034H304.819C304.989 151.034 305.126 150.897 305.126 150.727V149.857C305.126 149.687 304.989 149.549 304.819 149.549Z" fill="#E6E6E6"/>
<path d="M309.767 149.549H307.908C307.738 149.549 307.601 149.687 307.601 149.857V150.727C307.601 150.897 307.738 151.034 307.908 151.034H309.767C309.937 151.034 310.075 150.897 310.075 150.727V149.857C310.075 149.687 309.937 149.549 309.767 149.549Z" fill="#E6E6E6"/>
<path d="M314.716 149.549H312.856C312.686 149.549 312.549 149.687 312.549 149.857V150.727C312.549 150.897 312.686 151.034 312.856 151.034H314.716C314.885 151.034 315.023 150.897 315.023 150.727V149.857C315.023 149.687 314.885 149.549 314.716 149.549Z" fill="#E6E6E6"/>
<path d="M319.664 149.549H317.805C317.635 149.549 317.497 149.687 317.497 149.857V150.727C317.497 150.897 317.635 151.034 317.805 151.034H319.664C319.834 151.034 319.971 150.897 319.971 150.727V149.857C319.971 149.687 319.834 149.549 319.664 149.549Z" fill="#E6E6E6"/>
<path d="M324.612 149.549H322.753C322.583 149.549 322.446 149.687 322.446 149.857V150.727C322.446 150.897 322.583 151.034 322.753 151.034H324.612C324.782 151.034 324.92 150.897 324.92 150.727V149.857C324.92 149.687 324.782 149.549 324.612 149.549Z" fill="#E6E6E6"/>
<path d="M329.56 149.549H327.701C327.531 149.549 327.394 149.687 327.394 149.857V150.727C327.394 150.897 327.531 151.034 327.701 151.034H329.56C329.73 151.034 329.868 150.897 329.868 150.727V149.857C329.868 149.687 329.73 149.549 329.56 149.549Z" fill="#E6E6E6"/>
<path d="M296.407 152.519H277.228C277.059 152.519 276.921 152.657 276.921 152.827V153.697C276.921 153.867 277.059 154.004 277.228 154.004H296.407C296.577 154.004 296.714 153.867 296.714 153.697V152.827C296.714 152.657 296.577 152.519 296.407 152.519Z" fill="#E6E6E6"/>
<path d="M337.911 43.1602V90.7382C337.91 93.9244 336.645 96.98 334.393 99.233C332.14 101.486 329.086 102.752 325.9 102.752H266.37C264.027 102.753 261.734 102.068 259.775 100.782C257.815 99.4956 256.274 97.6644 255.342 95.5136C255.03 94.8029 254.791 94.0619 254.63 93.3023C255.896 93.7921 257.241 94.042 258.598 94.0394H318.128C321.064 94.0353 323.878 92.8671 325.953 90.791C328.029 88.7148 329.196 85.9001 329.201 82.9639V35.3859C329.203 34.0286 328.953 32.6827 328.464 31.4169C329.223 31.5778 329.964 31.8164 330.674 32.1288C332.824 33.0614 334.655 34.6026 335.941 36.5626C337.227 38.5226 337.911 40.8159 337.911 43.1602Z" fill="#F2F2F2"/>
<path d="M115.821 232.455L109.917 236.112L92.522 214.724L101.236 209.327L115.821 232.455Z" fill="#FFB6B6"/>
<path d="M120.919 240.094L116.169 242.215L113.32 238.108L113.15 243.564L100.553 249.189C99.9491 249.458 99.2749 249.528 98.6287 249.387C97.9826 249.246 97.3984 248.903 96.9614 248.406C96.5243 247.91 96.2573 247.287 96.1994 246.628C96.1415 245.969 96.2957 245.309 96.6394 244.744L103.598 233.302L101.574 228.767L112.437 224.674L120.919 240.094Z" fill="#363636"/>
<path d="M99.281 228.34L109.253 218.673C101.844 200.385 101.252 189.049 90.9811 166.93C115.351 171.916 132.773 171.613 152.927 167.143C159.75 165.653 177.355 152.051 175.908 145.076C175.84 144.75 175.76 144.427 175.668 144.107C173.505 136.729 175.028 125.43 170.346 117.242C161.682 113.975 148.521 125.008 138.225 131.733C133.26 134.975 136.894 139.394 133.186 140.553L118.972 145.168L84.0975 139.534C82.4121 139.279 80.6928 139.359 79.0387 139.771C77.3845 140.184 75.8283 140.919 74.4597 141.936C73.0912 142.953 71.9373 144.23 71.0645 145.695C70.1918 147.16 69.6175 148.783 69.3748 150.47C69.3158 150.849 69.2731 151.23 69.2466 151.613C70.8512 160.498 72.5239 169.15 74.3248 177.363C74.9061 180.014 73.9247 185.097 76.1107 185.173C78.2968 185.248 77.4162 190.505 78.097 193.075C82.2883 208.897 84.9387 216.553 99.281 228.34Z" fill="#363636"/>
<path d="M80.1939 270.742L74.0425 267.53L83.775 241.74L92.8538 246.48L80.1939 270.742Z" fill="#FFB6B6"/>
<path d="M79.1685 251.488L89.0321 258.281C101.121 240.792 108.971 217.423 114.816 191.274C137.577 181.342 157.493 169.979 171.371 154.738C173.651 152.182 174.846 148.84 174.704 145.418C174.561 141.997 173.093 138.765 170.61 136.408C170.367 136.18 170.116 135.962 169.857 135.753C163.845 130.963 150.494 133.719 141.961 129.716L126.717 150.821L128.469 155.737L123.166 158.319L118.689 160.499L113.563 162.995L96.7607 171.177C95.2374 171.939 93.8799 172.995 92.7665 174.284C91.6532 175.573 90.806 177.07 90.2738 178.688C89.7417 180.306 89.535 182.014 89.6659 183.712C89.7968 185.411 90.2625 187.066 91.0363 188.584C91.2061 188.928 91.3903 189.264 91.589 189.592L85.3488 220.689C85.3488 220.689 87.0659 226.103 84.3641 225.596C81.6623 225.09 83.1346 231.723 83.1346 231.723L79.1685 251.488Z" fill="#363636"/>
<path d="M76.4686 284.955L71.8575 282.547L73.3065 277.763L68.9264 281.017L56.6964 274.632C56.1102 274.326 55.6371 273.841 55.3462 273.247C55.0553 272.653 54.9619 271.981 55.0795 271.33C55.1971 270.68 55.5197 270.083 56.0001 269.629C56.4805 269.174 57.0936 268.885 57.7498 268.804L71.0366 267.155L73.3337 262.753L83.2863 268.729L76.4686 284.955Z" fill="#363636"/>
<path d="M210.92 149.754L203.726 132.363L198.057 135.513L201.481 153.205C201.138 154.325 201.114 155.52 201.413 156.653C201.711 157.787 202.32 158.814 203.17 159.621C204.021 160.427 205.079 160.98 206.227 161.218C207.374 161.456 208.565 161.368 209.666 160.966C210.766 160.564 211.733 159.863 212.457 158.941C213.181 158.019 213.633 156.914 213.764 155.749C213.894 154.584 213.697 153.406 213.195 152.347C212.692 151.288 211.905 150.39 210.92 149.754Z" fill="#FFB6B6"/>
<path d="M90.1947 12.2265L101.142 27.5354L105.949 23.1825L98.6073 6.72665C98.6873 5.55725 98.4397 4.38871 97.8922 3.35238C97.3447 2.31606 96.5191 1.45303 95.5082 0.860344C94.4972 0.267654 93.341 -0.0312091 92.1696 -0.00264488C90.9982 0.0259194 89.8579 0.380778 88.877 1.02204C87.8962 1.6633 87.1136 2.56553 86.6172 3.62731C86.1208 4.68909 85.9304 5.86831 86.0673 7.03242C86.2042 8.19653 86.663 9.29937 87.3922 10.2169C88.1213 11.1345 89.0919 11.8304 90.1947 12.2265H90.1947Z" fill="#FFB6B6"/>
<path d="M139.628 109.256C132.528 120.273 158.54 144.275 172.235 138.663C174.633 137.68 182.882 134.434 177.243 129.933C171.605 125.433 177.897 130.469 178.046 127.54C178.145 125.581 176.629 121.284 178.211 121.468C179.793 121.653 180.701 117.076 177.256 115.911C176.058 115.483 175.007 114.722 174.226 113.718C173.445 112.714 172.967 111.507 172.847 110.241C172.518 98.1657 176.606 85.5587 176.606 85.5587L193.294 128.232C193.294 128.232 193.171 135.615 195.299 133.359C197.428 131.103 197.273 138.405 197.273 138.405C197.273 138.405 200.437 140.614 198.617 141.843C196.798 143.073 200.577 146.853 200.577 146.853L209.394 146.223C209.394 146.223 209.256 139.671 207.75 138.222C206.245 136.773 206.984 134.493 206.984 134.493C206.984 134.493 203.881 131.605 205.693 128.204C207.505 124.803 192.497 63.9673 192.497 63.9673C191.896 61.0404 190.497 58.3368 188.456 56.1554C186.415 53.9739 183.81 52.3996 180.93 51.6064L171.407 48.9835L169.716 42.2719H156.306L153.97 46.6819L132.557 44.7919C132.557 44.7919 111.368 25.5075 112.402 24.0017C113.437 22.496 110.152 18.9707 110.152 18.9707C110.152 18.9707 107.347 18.0523 108.93 17.562C110.513 17.0716 107.521 15.938 107.521 15.938C107.521 15.938 104.75 15.2097 106.057 14.2507C107.364 13.2916 101.696 12.6616 101.696 12.6616L94.3411 18.664L95.8275 21.1853C95.8275 21.1853 94.9212 24.6184 96.104 23.3651C97.2868 22.1118 97.5095 25.749 97.5095 25.749C97.5095 25.749 98.1135 29.7318 101.696 30.9318C105.278 32.1318 107.994 43.5319 107.994 43.5319L138.225 68.7321C133.621 74.0186 134.716 79.5468 138.795 85.2016L139.628 109.256Z" fill="url(#paint0_linear_4_276)"/>
<path d="M162.708 37.8126C170.728 37.8126 177.229 31.3095 177.229 23.2874C177.229 15.2654 170.728 8.76221 162.708 8.76221C154.689 8.76221 148.188 15.2654 148.188 23.2874C148.188 31.3095 154.689 37.8126 162.708 37.8126Z" fill="#FFB6B6"/>
<path d="M175.384 18.9617C175.012 19.0688 169.558 19.7808 167.196 20.2218C164.879 20.6565 164.475 17.7017 162.58 18.2561C162.581 18.2432 162.579 18.2302 162.573 18.2183C162.28 16.6528 161.777 15.1336 161.081 13.7012C161.334 15.0731 161.37 16.4761 161.188 17.8592C161.187 17.8952 161.183 17.9311 161.175 17.9663C161.169 18.0293 161.156 18.086 161.15 18.149C159.147 17.267 157.875 18.0545 156.489 18.3317C154.94 18.6404 153.731 19.3208 154.6 24.6318C156.382 35.5561 165.653 39.4558 164.047 46.682C163.732 48.1121 162.939 49.9013 161.944 50.3486C161.65 48.7831 161.148 47.2639 160.451 45.8315C160.704 47.2034 160.74 48.6064 160.558 49.9895C159.015 48.32 157.9 42.4861 152.711 37.8619C151.432 36.7279 145.027 29.9994 144.258 28.4118C144.494 29.6812 144.608 30.9701 144.599 32.2612C144.6 33.1252 144.541 33.9883 144.422 34.8442C144.422 34.8993 144.416 34.9543 144.403 35.008C144.397 35.1088 144.378 35.197 144.366 35.2915C144.353 35.3986 144.334 35.4994 144.315 35.6065C142.218 35.3041 140.36 34.9387 139.484 34.0819C135.227 29.9364 140.423 21.8598 143.263 14.5517C147.326 4.08732 159.122 2.69501 160.268 2.58161C165.319 2.0713 173.853 3.15491 176.644 8.88166C178.596 12.8948 177.349 18.3947 175.384 18.9617Z" fill="#363636"/>
<path d="M144.765 21.3238L155.284 4.95606C152.763 3.49218 149.893 2.73897 146.978 2.77648C145.525 2.80668 144.095 3.14272 142.781 3.7627C141.467 4.38268 140.299 5.27269 139.351 6.37472C137.203 9.04544 136.835 12.8208 137.639 16.1528C137.917 17.3036 143.211 13.2546 141.951 15.1446C140.917 16.6244 139.226 22.8442 138.802 24.5947C138.12 27.4119 136.243 30.3038 137.915 32.6717C139.892 35.4717 143.419 36.8635 146.843 37.0048C150.267 37.1462 153.637 36.197 156.891 35.1219L144.765 21.3238Z" fill="#363636"/>
<path d="M148.807 20.6783C148.655 20.6781 148.509 20.623 148.394 20.5232C148.28 20.4234 148.205 20.2855 148.184 20.135C148.163 19.9845 148.197 19.8315 148.28 19.7042C148.363 19.5769 148.489 19.4839 148.635 19.4422C148.8 19.1697 148.733 18.0226 148.678 17.0957C148.473 13.6156 148.131 7.79117 153.784 3.85945C153.921 3.76408 154.09 3.72709 154.254 3.75663C154.419 3.78617 154.565 3.87981 154.66 4.01695C154.755 4.1541 154.792 4.32351 154.763 4.48793C154.733 4.65235 154.64 4.7983 154.503 4.89367C149.43 8.42238 149.734 13.5975 149.936 17.0216C150.051 18.9793 150.134 20.3934 148.947 20.6626C148.901 20.6731 148.854 20.6783 148.807 20.6783Z" fill="url(#paint1_linear_4_276)"/>
<path d="M278.715 59.7556H269.185C268.932 59.7556 268.69 59.6552 268.511 59.4764C268.332 59.2976 268.232 59.0552 268.232 58.8023C268.232 58.5495 268.332 58.307 268.511 58.1282C268.69 57.9494 268.932 57.849 269.185 57.849H278.715C278.968 57.849 279.211 57.9494 279.389 58.1282C279.568 58.307 279.668 58.5495 279.668 58.8023C279.668 59.0552 279.568 59.2976 279.389 59.4764C279.211 59.6552 278.968 59.7556 278.715 59.7556Z" fill="url(#paint2_linear_4_276)"/>
<path d="M295.87 59.7556H286.34C286.215 59.7556 286.091 59.731 285.975 59.6831C285.859 59.6352 285.754 59.5649 285.666 59.4764C285.577 59.3879 285.507 59.2828 285.459 59.1671C285.411 59.0515 285.387 58.9275 285.387 58.8023C285.387 58.6771 285.411 58.5532 285.459 58.4375C285.507 58.3218 285.577 58.2167 285.666 58.1282C285.754 58.0397 285.859 57.9695 285.975 57.9216C286.091 57.8736 286.215 57.849 286.34 57.849H295.87C295.995 57.849 296.119 57.8736 296.235 57.9216C296.351 57.9695 296.456 58.0397 296.544 58.1282C296.633 58.2167 296.703 58.3218 296.751 58.4375C296.799 58.5532 296.823 58.6771 296.823 58.8023C296.823 58.9275 296.799 59.0515 296.751 59.1671C296.703 59.2828 296.633 59.3879 296.544 59.4764C296.456 59.5649 296.351 59.6352 296.235 59.6831C296.119 59.731 295.995 59.7556 295.87 59.7556Z" fill="url(#paint3_linear_4_276)"/>
<path d="M304.448 67.3823H294.917C294.792 67.3823 294.668 67.3576 294.552 67.3097C294.437 67.2618 294.332 67.1916 294.243 67.103C294.155 67.0145 294.085 66.9094 294.037 66.7937C293.989 66.6781 293.964 66.5541 293.964 66.4289C293.964 66.3037 293.989 66.1797 294.037 66.0641C294.085 65.9484 294.155 65.8433 294.243 65.7548C294.332 65.6663 294.437 65.5961 294.552 65.5481C294.668 65.5002 294.792 65.4756 294.917 65.4756H304.448C304.573 65.4756 304.697 65.5002 304.812 65.5481C304.928 65.5961 305.033 65.6663 305.121 65.7548C305.21 65.8433 305.28 65.9484 305.328 66.0641C305.376 66.1797 305.401 66.3037 305.401 66.4289C305.401 66.5541 305.376 66.6781 305.328 66.7937C305.28 66.9094 305.21 67.0145 305.121 67.103C305.033 67.1916 304.928 67.2618 304.812 67.3097C304.697 67.3576 304.573 67.3823 304.448 67.3823Z" fill="url(#paint4_linear_4_276)"/>
<path d="M287.345 67.3823H269.185C268.932 67.3823 268.69 67.2818 268.511 67.103C268.332 66.9242 268.232 66.6818 268.232 66.4289C268.232 66.1761 268.332 65.9336 268.511 65.7548C268.69 65.576 268.932 65.4756 269.185 65.4756H287.345C287.598 65.4756 287.841 65.576 288.019 65.7548C288.198 65.9336 288.298 66.1761 288.298 66.4289C288.298 66.6818 288.198 66.9242 288.019 67.103C287.841 67.2818 287.598 67.3823 287.345 67.3823Z" fill="url(#paint5_linear_4_276)"/>
<path d="M321.655 59.7556H303.495C303.242 59.7556 302.999 59.6552 302.821 59.4764C302.642 59.2976 302.542 59.0552 302.542 58.8023C302.542 58.5495 302.642 58.307 302.821 58.1282C302.999 57.9494 303.242 57.849 303.495 57.849H321.655C321.78 57.849 321.904 57.8736 322.02 57.9216C322.135 57.9695 322.24 58.0397 322.329 58.1282C322.417 58.2167 322.488 58.3218 322.536 58.4375C322.583 58.5532 322.608 58.6771 322.608 58.8023C322.608 58.9275 322.583 59.0515 322.536 59.1671C322.488 59.2828 322.417 59.3879 322.329 59.4764C322.24 59.5649 322.135 59.6352 322.02 59.6831C321.904 59.731 321.78 59.7556 321.655 59.7556Z" fill="url(#paint6_linear_4_276)"/>
<path d="M285.24 45.3134H267.08C266.954 45.3137 266.83 45.2893 266.714 45.2415C266.598 45.1938 266.493 45.1236 266.404 45.0351C266.316 44.9465 266.245 44.8413 266.197 44.7255C266.149 44.6096 266.124 44.4855 266.124 44.3601C266.124 44.2347 266.149 44.1105 266.197 43.9947C266.245 43.8789 266.316 43.7737 266.404 43.6851C266.493 43.5965 266.598 43.5264 266.714 43.4786C266.83 43.4308 266.954 43.4064 267.08 43.4067H285.24C285.493 43.4067 285.735 43.5072 285.914 43.686C286.093 43.8647 286.193 44.1072 286.193 44.3601C286.193 44.6129 286.093 44.8554 285.914 45.0342C285.735 45.213 285.493 45.3134 285.24 45.3134Z" fill="url(#paint7_linear_4_276)"/>
<path d="M286.733 50.8831C286.555 50.8832 286.382 50.8277 286.237 50.7243C286.092 50.6209 285.983 50.4749 285.926 50.3066C285.868 50.1382 285.864 49.9561 285.915 49.7855C285.966 49.615 286.069 49.4646 286.209 49.3554L290.859 45.7397C291.046 45.5944 291.201 45.4119 291.313 45.2037C291.426 44.9955 291.494 44.7662 291.514 44.5302C291.533 44.2943 291.503 44.0569 291.426 43.8331C291.349 43.6092 291.226 43.4039 291.066 43.23L287.162 39.0022C287.086 38.9199 287.027 38.8234 286.988 38.7182C286.949 38.613 286.931 38.5012 286.936 38.3892C286.94 38.2772 286.967 38.1671 287.013 38.0653C287.06 37.9635 287.127 37.8719 287.209 37.7959C287.292 37.7198 287.388 37.6606 287.493 37.6218C287.598 37.583 287.71 37.5653 287.822 37.5698C287.934 37.5742 288.044 37.6006 288.146 37.6476C288.248 37.6945 288.339 37.761 288.415 37.8434L294.213 44.1213C294.293 44.2081 294.354 44.3107 294.393 44.4224C294.431 44.5342 294.446 44.6528 294.437 44.7706C294.427 44.8885 294.393 45.003 294.337 45.107C294.281 45.211 294.203 45.3022 294.11 45.3748L287.257 50.7035C287.107 50.82 286.923 50.8832 286.733 50.8831Z" fill="url(#paint8_linear_4_276)"/>
<path d="M266.161 50.8831C266.339 50.8832 266.512 50.8277 266.657 50.7243C266.802 50.6209 266.911 50.4749 266.968 50.3066C267.026 50.1382 267.03 49.9561 266.979 49.7855C266.928 49.615 266.826 49.4646 266.685 49.3554L262.035 45.7397C261.848 45.5944 261.693 45.4119 261.581 45.2037C261.468 44.9955 261.4 44.7662 261.381 44.5302C261.361 44.2943 261.391 44.0569 261.468 43.8331C261.545 43.6092 261.668 43.4039 261.828 43.23L265.732 39.0022C265.808 38.9199 265.868 38.8234 265.906 38.7182C265.945 38.613 265.963 38.5012 265.958 38.3892C265.954 38.2772 265.928 38.1671 265.881 38.0653C265.834 37.9635 265.767 37.8719 265.685 37.7959C265.603 37.7198 265.506 37.6606 265.401 37.6218C265.296 37.583 265.184 37.5653 265.072 37.5698C264.96 37.5742 264.85 37.6006 264.748 37.6476C264.646 37.6945 264.555 37.761 264.479 37.8434L258.681 44.1213C258.601 44.2081 258.54 44.3107 258.501 44.4224C258.463 44.5342 258.448 44.6528 258.457 44.7706C258.467 44.8885 258.501 45.003 258.557 45.107C258.614 45.211 258.691 45.3022 258.784 45.3748L265.637 50.7035C265.787 50.82 265.971 50.8832 266.161 50.8831Z" fill="url(#paint9_linear_4_276)"/>
<path d="M294.628 83.7311H276.468C276.215 83.7311 275.973 83.6307 275.794 83.4519C275.615 83.2731 275.515 83.0306 275.515 82.7778C275.515 82.525 275.615 82.2825 275.794 82.1037C275.973 81.9249 276.215 81.8245 276.468 81.8245H294.628C294.881 81.8245 295.123 81.9249 295.302 82.1037C295.481 82.2825 295.581 82.525 295.581 82.7778C295.581 83.0306 295.481 83.2731 295.302 83.4519C295.123 83.6307 294.881 83.7311 294.628 83.7311Z" fill="url(#paint10_linear_4_276)"/>
<path d="M297.829 88.4472C297.651 88.4473 297.477 88.3918 297.332 88.2884C297.188 88.185 297.079 88.039 297.021 87.8706C296.963 87.7023 296.959 87.5201 297.01 87.3496C297.061 87.1791 297.164 87.0287 297.304 86.9194L301.954 83.3038C302.141 83.1585 302.296 82.976 302.409 82.7678C302.521 82.5596 302.589 82.3302 302.609 82.0943C302.628 81.8584 302.598 81.621 302.521 81.3971C302.444 81.1733 302.322 80.9679 302.161 80.794L298.257 76.5663C298.181 76.484 298.122 76.3875 298.083 76.2823C298.044 76.1771 298.027 76.0653 298.031 75.9533C298.035 75.8413 298.062 75.7312 298.109 75.6294C298.156 75.5276 298.222 75.436 298.304 75.3599C298.387 75.2838 298.483 75.2247 298.588 75.1859C298.694 75.1471 298.805 75.1294 298.917 75.1338C299.029 75.1383 299.139 75.1647 299.241 75.2116C299.343 75.2586 299.434 75.3251 299.51 75.4074L305.308 81.6854C305.388 81.7722 305.45 81.8748 305.488 81.9865C305.527 82.0983 305.542 82.2169 305.532 82.3347C305.522 82.4525 305.488 82.5671 305.432 82.6711C305.376 82.7751 305.298 82.8663 305.205 82.9389L298.352 88.2676C298.202 88.3841 298.018 88.4473 297.829 88.4472Z" fill="url(#paint11_linear_4_276)"/>
<path d="M266.161 88.4472C266.339 88.4473 266.512 88.3918 266.657 88.2884C266.802 88.185 266.911 88.039 266.968 87.8706C267.026 87.7023 267.03 87.5201 266.979 87.3496C266.928 87.1791 266.826 87.0287 266.685 86.9194L262.035 83.3038C261.848 83.1585 261.693 82.976 261.581 82.7678C261.468 82.5596 261.4 82.3302 261.381 82.0943C261.361 81.8584 261.391 81.621 261.468 81.3971C261.545 81.1733 261.668 80.9679 261.828 80.794L265.732 76.5663C265.886 76.4 265.967 76.1795 265.958 75.9533C265.949 75.727 265.851 75.5136 265.685 75.3599C265.519 75.2062 265.298 75.1249 265.072 75.1338C264.846 75.1428 264.632 75.2412 264.479 75.4074L258.681 81.6854C258.601 81.7722 258.54 81.8748 258.501 81.9865C258.463 82.0983 258.448 82.2169 258.457 82.3347C258.467 82.4525 258.501 82.5671 258.557 82.6711C258.614 82.7751 258.691 82.8663 258.784 82.9389L265.637 88.2676C265.787 88.3841 265.971 88.4473 266.161 88.4472Z" fill="url(#paint12_linear_4_276)"/>
<path d="M267.782 85.776L271.599 77.0409C271.701 76.8104 271.89 76.6297 272.125 76.5383C272.36 76.4469 272.621 76.4522 272.852 76.5532C273.083 76.6542 273.265 76.8425 273.357 77.0771C273.449 77.3116 273.445 77.5732 273.345 77.8046L269.528 86.5397C269.478 86.655 269.406 86.7594 269.316 86.8468C269.226 86.9342 269.119 87.0029 269.003 87.0489C268.886 87.095 268.761 87.1175 268.636 87.1153C268.51 87.113 268.386 87.0859 268.271 87.0356C268.156 86.9853 268.052 86.9128 267.965 86.8222C267.878 86.7315 267.81 86.6247 267.765 86.5076C267.719 86.3906 267.697 86.2657 267.7 86.1401C267.703 86.0146 267.731 85.8909 267.782 85.776Z" fill="url(#paint13_linear_4_276)"/>
</g>
<defs>
<linearGradient id="paint0_linear_4_276" x1="89.7389" y1="12.6617" x2="211.841" y2="14.9266" gradientUnits="userSpaceOnUse">
<stop stop-color="#CB32FD"/>
<stop offset="1" stop-color="#FE017D"/>
</linearGradient>
<linearGradient id="paint1_linear_4_276" x1="147.914" y1="3.74671" x2="154.915" y2="3.8057" gradientUnits="userSpaceOnUse">
<stop stop-color="#CB32FD"/>
<stop offset="1" stop-color="#FE017D"/>
</linearGradient>
<linearGradient id="paint2_linear_4_276" x1="267.774" y1="57.849" x2="279.715" y2="59.3985" gradientUnits="userSpaceOnUse">
<stop stop-color="#CB32FD"/>
<stop offset="1" stop-color="#FE017D"/>
</linearGradient>
<linearGradient id="paint3_linear_4_276" x1="284.929" y1="57.849" x2="296.87" y2="59.3985" gradientUnits="userSpaceOnUse">
<stop stop-color="#CB32FD"/>
<stop offset="1" stop-color="#FE017D"/>
</linearGradient>
<linearGradient id="paint4_linear_4_276" x1="293.507" y1="65.4756" x2="305.447" y2="67.0251" gradientUnits="userSpaceOnUse">
<stop stop-color="#CB32FD"/>
<stop offset="1" stop-color="#FE017D"/>
</linearGradient>
<linearGradient id="paint5_linear_4_276" x1="267.429" y1="65.4756" x2="287.683" y2="70.0871" gradientUnits="userSpaceOnUse">
<stop stop-color="#CB32FD"/>
<stop offset="1" stop-color="#FE017D"/>
</linearGradient>
<linearGradient id="paint6_linear_4_276" x1="301.739" y1="57.849" x2="321.992" y2="62.4606" gradientUnits="userSpaceOnUse">
<stop stop-color="#CB32FD"/>
<stop offset="1" stop-color="#FE017D"/>
</linearGradient>
<linearGradient id="paint7_linear_4_276" x1="265.322" y1="43.4067" x2="285.577" y2="48.0193" gradientUnits="userSpaceOnUse">
<stop stop-color="#CB32FD"/>
<stop offset="1" stop-color="#FE017D"/>
</linearGradient>
<linearGradient id="paint8_linear_4_276" x1="285.537" y1="37.5691" x2="294.623" y2="37.6955" gradientUnits="userSpaceOnUse">
<stop stop-color="#CB32FD"/>
<stop offset="1" stop-color="#FE017D"/>
</linearGradient>
<linearGradient id="paint9_linear_4_276" x1="258.112" y1="37.5691" x2="267.198" y2="37.6955" gradientUnits="userSpaceOnUse">
<stop stop-color="#CB32FD"/>
<stop offset="1" stop-color="#FE017D"/>
</linearGradient>
<linearGradient id="paint10_linear_4_276" x1="274.712" y1="81.8245" x2="294.965" y2="86.4359" gradientUnits="userSpaceOnUse">
<stop stop-color="#CB32FD"/>
<stop offset="1" stop-color="#FE017D"/>
</linearGradient>
<linearGradient id="paint11_linear_4_276" x1="296.632" y1="75.1332" x2="305.718" y2="75.2596" gradientUnits="userSpaceOnUse">
<stop stop-color="#CB32FD"/>
<stop offset="1" stop-color="#FE017D"/>
</linearGradient>
<linearGradient id="paint12_linear_4_276" x1="258.112" y1="75.1332" x2="267.198" y2="75.2596" gradientUnits="userSpaceOnUse">
<stop stop-color="#CB32FD"/>
<stop offset="1" stop-color="#FE017D"/>
</linearGradient>
<linearGradient id="paint13_linear_4_276" x1="267.471" y1="76.4734" x2="273.546" y2="76.5441" gradientUnits="userSpaceOnUse">
<stop stop-color="#CB32FD"/>
<stop offset="1" stop-color="#FE017D"/>
</linearGradient>
<clipPath id="clip0_4_276">
<rect width="452" height="286" fill="white"/>
</clipPath>
</defs>
</svg>
